<svg width="120" height="41" viewBox="0 0 120 41" fill="none" xmlns="http://www.w3.org/2000/svg">
<rect x="1" width="119" height="39" fill="#CFE2F3"/>
<rect x="1.5" y="0.5" width="118" height="38" stroke="black" stroke-opacity="0.5"/>
<g filter="url(#filter0_d_414_33)">
<rect x="6" y="6" width="109" height="27" fill="#CFE2F3"/>
<rect x="6.5" y="6.5" width="108" height="26" stroke="black" stroke-opacity="0.5"/>
</g>
<line x1="6.64645" y1="6.35355" x2="1.35022" y2="1.05732" stroke="black" stroke-opacity="0.44"/>
<line x1="1.61589" y1="38.6799" x2="6.61589" y2="32.6799" stroke="black" stroke-opacity="0.47"/>
<line x1="114.608" y1="6.68993" x2="119.46" y2="0.551219" stroke="black" stroke-opacity="0.54"/>
<line x1="114.407" y1="31.7094" x2="119.407" y2="38.7094" stroke="black" stroke-opacity="0.47"/>
<path d="M40.1449 24V14.5455H43.4503C44.1089 14.5455 44.6521 14.6593 45.0799 14.8871C45.5077 15.1117 45.8262 15.4149 46.0355 15.7965C46.2448 16.1751 46.3494 16.5952 46.3494 17.0568C46.3494 17.4631 46.2771 17.7985 46.1325 18.0632C45.9909 18.3279 45.8031 18.5372 45.5692 18.6911C45.3384 18.8449 45.0876 18.9588 44.8168 19.0327V19.125C45.1061 19.1435 45.3969 19.245 45.6893 19.4297C45.9817 19.6143 46.2263 19.879 46.4233 20.2237C46.6203 20.5684 46.7188 20.9901 46.7188 21.4886C46.7188 21.9626 46.611 22.3888 46.3956 22.7674C46.1802 23.146 45.8401 23.446 45.3754 23.6676C44.9106 23.8892 44.3059 24 43.5611 24H40.1449ZM41.2898 22.9844H43.5611C44.3089 22.9844 44.8398 22.8397 45.1538 22.5504C45.4708 22.258 45.6293 21.9041 45.6293 21.4886C45.6293 21.1686 45.5477 20.8731 45.3846 20.6023C45.2215 20.3284 44.9891 20.1098 44.6875 19.9467C44.3859 19.7805 44.0289 19.6974 43.6165 19.6974H41.2898V22.9844ZM41.2898 18.7003H43.4134C43.758 18.7003 44.0689 18.6326 44.3459 18.4972C44.6259 18.3617 44.8475 18.1709 45.0107 17.9247C45.1768 17.6785 45.2599 17.3892 45.2599 17.0568C45.2599 16.6413 45.1153 16.2889 44.826 15.9996C44.5367 15.7073 44.0781 15.5611 43.4503 15.5611H41.2898V18.7003ZM51.3329 24.1477C50.6928 24.1477 50.1311 23.9954 49.6479 23.6907C49.1678 23.386 48.7923 22.9598 48.5215 22.4119C48.2537 21.8641 48.1199 21.224 48.1199 20.4915C48.1199 19.7528 48.2537 19.1081 48.5215 18.5572C48.7923 18.0063 49.1678 17.5785 49.6479 17.2738C50.1311 16.9691 50.6928 16.8168 51.3329 16.8168C51.9731 16.8168 52.5332 16.9691 53.0133 17.2738C53.4965 17.5785 53.872 18.0063 54.1397 18.5572C54.4106 19.1081 54.546 19.7528 54.546 20.4915C54.546 21.224 54.4106 21.8641 54.1397 22.4119C53.872 22.9598 53.4965 23.386 53.0133 23.6907C52.5332 23.9954 51.9731 24.1477 51.3329 24.1477ZM51.3329 23.169C51.8192 23.169 52.2193 23.0444 52.5332 22.7951C52.8471 22.5458 53.0795 22.218 53.2303 21.8118C53.3811 21.4055 53.4565 20.9654 53.4565 20.4915C53.4565 20.0175 53.3811 19.5759 53.2303 19.1665C53.0795 18.7572 52.8471 18.4264 52.5332 18.174C52.2193 17.9216 51.8192 17.7955 51.3329 17.7955C50.8467 17.7955 50.4466 17.9216 50.1326 18.174C49.8187 18.4264 49.5864 18.7572 49.4355 19.1665C49.2847 19.5759 49.2093 20.0175 49.2093 20.4915C49.2093 20.9654 49.2847 21.4055 49.4355 21.8118C49.5864 22.218 49.8187 22.5458 50.1326 22.7951C50.4466 23.0444 50.8467 23.169 51.3329 23.169ZM60.6778 21.1009V16.9091H61.7673V24H60.6778V22.7997H60.604C60.4378 23.1598 60.1792 23.466 59.8284 23.7184C59.4775 23.9677 59.0344 24.0923 58.4988 24.0923C58.0557 24.0923 57.6617 23.9954 57.317 23.8015C56.9723 23.6045 56.7015 23.3091 56.5045 22.9151C56.3076 22.5181 56.2091 22.018 56.2091 21.4148V16.9091H57.2986V21.3409C57.2986 21.858 57.4432 22.2704 57.7325 22.5781C58.0249 22.8859 58.3973 23.0398 58.8497 23.0398C59.1205 23.0398 59.396 22.9705 59.676 22.832C59.9592 22.6935 60.1962 22.4812 60.387 22.195C60.5809 21.9087 60.6778 21.544 60.6778 21.1009ZM66.8466 16.9091V17.8324H63.1719V16.9091H66.8466ZM64.2429 15.2102H65.3324V21.9688C65.3324 22.2765 65.377 22.5073 65.4663 22.6612C65.5586 22.812 65.6755 22.9136 65.8171 22.9659C65.9618 23.0152 66.1141 23.0398 66.2741 23.0398C66.3942 23.0398 66.4927 23.0336 66.5696 23.0213C66.6465 23.0059 66.7081 22.9936 66.7543 22.9844L66.9759 23.9631C66.902 23.9908 66.7989 24.0185 66.6665 24.0462C66.5342 24.0769 66.3665 24.0923 66.1634 24.0923C65.8556 24.0923 65.554 24.0262 65.2585 23.8938C64.9661 23.7615 64.723 23.5599 64.5291 23.2891C64.3383 23.0182 64.2429 22.6766 64.2429 22.2642V15.2102ZM71.29 24.1477C70.6498 24.1477 70.0881 23.9954 69.6049 23.6907C69.1248 23.386 68.7493 22.9598 68.4785 22.4119C68.2108 21.8641 68.0769 21.224 68.0769 20.4915C68.0769 19.7528 68.2108 19.1081 68.4785 18.5572C68.7493 18.0063 69.1248 17.5785 69.6049 17.2738C70.0881 16.9691 70.6498 16.8168 71.29 16.8168C71.9301 16.8168 72.4902 16.9691 72.9703 17.2738C73.4535 17.5785 73.829 18.0063 74.0968 18.5572C74.3676 19.1081 74.503 19.7528 74.503 20.4915C74.503 21.224 74.3676 21.8641 74.0968 22.4119C73.829 22.9598 73.4535 23.386 72.9703 23.6907C72.4902 23.9954 71.9301 24.1477 71.29 24.1477ZM71.29 23.169C71.7762 23.169 72.1763 23.0444 72.4902 22.7951C72.8042 22.5458 73.0365 22.218 73.1873 21.8118C73.3381 21.4055 73.4135 20.9654 73.4135 20.4915C73.4135 20.0175 73.3381 19.5759 73.1873 19.1665C73.0365 18.7572 72.8042 18.4264 72.4902 18.174C72.1763 17.9216 71.7762 17.7955 71.29 17.7955C70.8037 17.7955 70.4036 17.9216 70.0897 18.174C69.7757 18.4264 69.5434 18.7572 69.3926 19.1665C69.2418 19.5759 69.1664 20.0175 69.1664 20.4915C69.1664 20.9654 69.2418 21.4055 69.3926 21.8118C69.5434 22.218 69.7757 22.5458 70.0897 22.7951C70.4036 23.0444 70.8037 23.169 71.29 23.169ZM77.2556 19.7344V24H76.1661V16.9091H77.2187V18.017H77.311C77.4772 17.657 77.7296 17.3677 78.0681 17.1491C78.4066 16.9276 78.8437 16.8168 79.3792 16.8168C79.8593 16.8168 80.2794 16.9152 80.6395 17.1122C80.9996 17.3061 81.2796 17.6016 81.4797 17.9986C81.6797 18.3925 81.7797 18.8911 81.7797 19.4943V24H80.6903V19.5682C80.6903 19.0111 80.5456 18.5772 80.2563 18.2663C79.967 17.9524 79.57 17.7955 79.0653 17.7955C78.7175 17.7955 78.4066 17.8709 78.1327 18.0217C77.8619 18.1725 77.648 18.3925 77.491 18.6818C77.3341 18.9711 77.2556 19.322 77.2556 19.7344Z" fill="black" fill-opacity="0.81"/>
<defs>
<filter id="filter0_d_414_33" x="2" y="6" width="117" height="35" filterUnits="userSpaceOnUse" color-interpolation-filters="sRGB">
<feFlood flood-opacity="0" result="BackgroundImageFix"/>
<feColorMatrix in="SourceAlpha" type="matrix" values="0 0 0 0 0 0 0 0 0 0 0 0 0 0 0 0 0 0 127 0" result="hardAlpha"/>
<feOffset dy="4"/>
<feGaussianBlur stdDeviation="2"/>
<feComposite in2="hardAlpha" operator="out"/>
<feColorMatrix type="matrix" values="0 0 0 0 0 0 0 0 0 0 0 0 0 0 0 0 0 0 0.25 0"/>
<feBlend mode="normal" in2="BackgroundImageFix" result="effect1_dropShadow_414_33"/>
<feBlend mode="normal" in="SourceGraphic" in2="effect1_dropShadow_414_33" result="shape"/>
</filter>
</defs>
</svg>
