<svg width="36" height="37" viewBox="0 0 36 37" fill="none" xmlns="http://www.w3.org/2000/svg">
<path d="M18 4.04688C15.2187 4.04687 12.4999 4.89454 10.1873 6.48267C7.87473 8.0708 6.07231 10.3281 5.00795 12.969C3.94359 15.61 3.66511 18.516 4.20771 21.3197C4.75032 24.1233 6.08964 26.6986 8.05632 28.7199C10.023 30.7412 12.5287 32.1177 15.2565 32.6754C17.9844 33.2331 20.8119 32.9469 23.3815 31.8529C25.9511 30.759 28.1473 28.9065 29.6925 26.5297C31.2378 24.1529 32.0625 21.3586 32.0625 18.5C32.0584 14.6681 30.5755 10.9943 27.9392 8.28475C25.3028 5.57517 21.7284 4.05108 18 4.04688ZM18 31.7969C15.4412 31.7969 12.9399 31.017 10.8123 29.5559C8.68476 28.0949 7.02652 26.0182 6.04731 23.5885C5.06811 21.1588 4.8119 18.4852 5.3111 15.9059C5.81029 13.3266 7.04247 10.9573 8.85181 9.09769C10.6612 7.23809 12.9664 5.97168 15.476 5.45862C17.9857 4.94556 20.587 5.20888 22.951 6.21529C25.315 7.2217 27.3356 8.92599 28.7571 11.1127C30.1787 13.2993 30.9375 15.8701 30.9375 18.5C30.9338 22.0254 29.5695 25.4053 27.1441 27.8981C24.7186 30.3909 21.4301 31.793 18 31.7969ZM24.1875 18.5C24.1875 18.6533 24.1282 18.8004 24.0228 18.9088C23.9173 19.0172 23.7742 19.0781 23.625 19.0781H18.5625V24.2812C18.5625 24.4346 18.5032 24.5816 18.3978 24.69C18.2923 24.7985 18.1492 24.8594 18 24.8594C17.8508 24.8594 17.7077 24.7985 17.6023 24.69C17.4968 24.5816 17.4375 24.4346 17.4375 24.2812V19.0781H12.375C12.2258 19.0781 12.0827 19.0172 11.9773 18.9088C11.8718 18.8004 11.8125 18.6533 11.8125 18.5C11.8125 18.3467 11.8718 18.1996 11.9773 18.0912C12.0827 17.9828 12.2258 17.9219 12.375 17.9219H17.4375V12.7188C17.4375 12.5654 17.4968 12.4184 17.6023 12.31C17.7077 12.2015 17.8508 12.1406 18 12.1406C18.1492 12.1406 18.2923 12.2015 18.3978 12.31C18.5032 12.4184 18.5625 12.5654 18.5625 12.7188V17.9219H23.625C23.7742 17.9219 23.9173 17.9828 24.0228 18.0912C24.1282 18.1996 24.1875 18.3467 24.1875 18.5Z" fill="#545454"/>
</svg>
